<mxfile host="app.diagrams.net" modified="2021-03-31T13:36:56.281Z" agent="5.0 (Windows)" etag="5L1pCU8z2bc595gEjic4" version="14.5.3" type="github">
  <diagram id="C5RBs43oDa-KdzZeNtuy" name="Page-1">
    <mxGraphModel dx="967" dy="677" grid="1" gridSize="10" guides="1" tooltips="1" connect="1" arrows="1" fold="1" page="1" pageScale="1" pageWidth="827" pageHeight="1169" math="0" shadow="0">
      <root>
        <mxCell id="WIyWlLk6GJQsqaUBKTNV-0" />
        <mxCell id="WIyWlLk6GJQsqaUBKTNV-1" parent="WIyWlLk6GJQsqaUBKTNV-0" />
        <mxCell id="xEbQ03a80R56JPfjnqh_-2" value="" style="edgeStyle=orthogonalEdgeStyle;rounded=0;orthogonalLoop=1;jettySize=auto;html=1;" edge="1" parent="WIyWlLk6GJQsqaUBKTNV-1" source="xEbQ03a80R56JPfjnqh_-0" target="xEbQ03a80R56JPfjnqh_-1">
          <mxGeometry relative="1" as="geometry" />
        </mxCell>
        <mxCell id="xEbQ03a80R56JPfjnqh_-0" value="&lt;div&gt;Papír alapú MM számla beérkezik az iktatóba&lt;/div&gt;" style="rounded=1;whiteSpace=wrap;html=1;fontSize=12;glass=0;strokeWidth=1;shadow=0;" vertex="1" parent="WIyWlLk6GJQsqaUBKTNV-1">
          <mxGeometry x="450" y="13.790000000000006" width="120" height="40" as="geometry" />
        </mxCell>
        <mxCell id="xEbQ03a80R56JPfjnqh_-4" value="" style="edgeStyle=orthogonalEdgeStyle;rounded=0;orthogonalLoop=1;jettySize=auto;html=1;" edge="1" parent="WIyWlLk6GJQsqaUBKTNV-1" source="xEbQ03a80R56JPfjnqh_-1" target="xEbQ03a80R56JPfjnqh_-3">
          <mxGeometry relative="1" as="geometry" />
        </mxCell>
        <mxCell id="xEbQ03a80R56JPfjnqh_-1" value="Szkennelik, iktatják a számlát" style="whiteSpace=wrap;html=1;rounded=1;shadow=0;strokeWidth=1;glass=0;" vertex="1" parent="WIyWlLk6GJQsqaUBKTNV-1">
          <mxGeometry x="450" y="70" width="120" height="60" as="geometry" />
        </mxCell>
        <mxCell id="xEbQ03a80R56JPfjnqh_-8" value="" style="edgeStyle=orthogonalEdgeStyle;rounded=0;orthogonalLoop=1;jettySize=auto;html=1;" edge="1" parent="WIyWlLk6GJQsqaUBKTNV-1" source="xEbQ03a80R56JPfjnqh_-3" target="xEbQ03a80R56JPfjnqh_-7">
          <mxGeometry relative="1" as="geometry" />
        </mxCell>
        <mxCell id="xEbQ03a80R56JPfjnqh_-3" value="Az MM számla átkerül az SAP-ba, mint egy DMS dokumentum. " style="whiteSpace=wrap;html=1;rounded=1;shadow=0;strokeWidth=1;glass=0;" vertex="1" parent="WIyWlLk6GJQsqaUBKTNV-1">
          <mxGeometry x="450" y="160.00000000000003" width="120" height="60" as="geometry" />
        </mxCell>
        <mxCell id="xEbQ03a80R56JPfjnqh_-5" value="" style="shape=image;verticalLabelPosition=bottom;labelBackgroundColor=#ffffff;verticalAlign=top;aspect=fixed;imageAspect=0;image=data:image/png,iVBORw0KGgoAAAANSUhEUgAAAjsAAAHtCAYAAAD/Wb/0AAAgAElEQVR4nO3dP2vkWL7wcYf7Ap5g030JG17YaMP7EgY2uAw3aiZabjTphMMGi+nAiAoMcmCQA8NRYJCTAjkwqAODHBjkoAIFHSiYwMEGvyeQq7tcrSOdI50q6Zz6Dnzobv05pfqjqu9ILutM9v4rX2pp/nj75vy2lLp5Aw4qu8sAJ+Z+LQNYnjNiBwAAhIzYAQAAQSN2AABA0IgdAAAQNGIHAAAEjdgBAABBI3YAAEDQiB0AABA0YgcAAASN2AEAAEEjdgAAQNCIHQAAEDRiBwAABI3YAQAAQSN2AABA0IxiBwAAwFeDsQMAAOAzYgcAAASN2AEAAEEjdgAAQNCIHQAAEDRiBwAABI3YAQAAQSN2AABA0IgdAAAQNGIHAAAEbXmx07xJnBby+1Uuv13iWH6/yiVOC2ka/XNzfpPLp39n8vO/FBz49O9Mzm/y9vH9arZ//H6ZyW+X2eyvl9OVye+XWft88ZydAJ5v68dpAWHjRewk61Ki20Kqr/NfOOzURGkhheb5j9JCfv6XEvWlluy5gQtPtfy6yiV/Mtvnzm8K9o0FiNJC1GPFc3YieL7dP06nHTvN99Cpv75JuXmT4rXBkZSbRoqXRn6/yntDJ17XEt1XcOWukk+fh/+PaPsmyr6xkP3E4P9iec78x/M94nFaQNgsN3b2QmfuJ+5UlfWb/HaZf3hevoXOYy3RXSXncCpe1/Lzv5RUm7r7zfTrxzfRuV8j+L6f8JydBp5vu8dp7qhZbuw0H09dzf2EnbJys/Ni3Qmd5LGePQpCFd2/x85Lxxvp14+Hxed+feDjfsJzdhp4vu0ep7mjZpmxc+DQOTs7m/0FcIztcjXetxfrbug81HKeVt44Oztb9Hj7ovuqjZ3Xuv0/R95Enb62D/Ee8O3D7wDP2VLfs3zZVt+e77nu5yEfp7mjZnmx87X5MXRefnR2dvaDruV065oue0wm2zXH/Sw3b/Lb59wodLoiYDvt0IEwNU5stu/gsXNXfTuy8+0wedebqGa/MJ3uIxf34xCPxe7/6ds8Z/vPUddzNbS9ffN35x3jNbDE19mSnu+uzy5X22c6ju71dcjHae6oWVbs7IZO/Sb5S6N1dnZmNM103SUw2S6bbXd1P4vn5ttXy+N1Lb/fVlpnZ2e9/56LyXbYbOuh79c2doqnUqpN+2b67U20Z9/YvnGaTj9Vh3gsik0jv13m1s+Zbnt2p/n03C1xW5f0fB/y8Zn6GXjIx2nuqFlO7OyETjnwxmD6ZO2Xs27d7b/73nC6xuoaW7dNXct11X3fOibLmtxPK1/MQ2c/AvrCZ3+b95frm69b1nSMoWmm0w8ZP+c7sVM8V/L7ZWa0b3S9lnXTbF+XQ6/7Ma/DMa9pk9s/yr6x/6b++v3Db8xzZvJ89t1Hk/cf28fM9ftO3/JjXldjt8mFYzzfNs/flH2o63Zd7xdzR80yYscydPqeBN2T1vdC6hvT9EVg+qIw2b6+6Sa3O3Q/je2Gzv1w6Ox+6G//dDnPxW2PjbO+2zDdPqvYSdvYyR8K+e1zIuc3udX/BOg+TGxf5/vzdK+/MfuO6T4wdbsPsm902L6pj33Ohp7PoYgwHXvMe9DY52LqfRtzv2zGWeLzPfYzyea5NXm8Xe8Xc0fN/LEzInRMdgKTF8LYcDBdd+z2jXmR2txPIyNCZ/dIyCFCaImxc4jQ2Y2d3/4dy++XmRQv9ejXl8vYGft6Nn0ztf1Anxo7Lj8Et2/qY5+zKe8Xx4gd2+fCdTiZ3i+bceZ6vrt0bedcsXOI/WLuqJk3dnZDZ2MeOiY7wdALYerOYhM7Ji/qrhfj/jpjdoZjho5N0HQZEztjxuhaZ0zsHCp0dmPn95WS7LGU7Iv9B6futWPzZmu7Tw29bvte4yav9aHlTccfvW/02L6pT3nOxjz2fWOYvs90Pc5944x9bF285oZe37bjLPH5Nn2c++6v7b419NxNfZzmjpr5Ymc/dJ4bK2dnZ73Tu+bvz9tfxmQd3bJD2zNm+7rGGLPNum3r9Pg9dCLL0DE9UtIXCX2BMTS9b3zdPJPt7Run7764iJ0kzSVZv7+RWu4X3964DF57Y/YBm9dY13Km65guP+Z+Wu0bA4qX9k19ynM25rHvG2NoPdNpNs+F7XvmlNeVy3GW9HyPWdbm/g49F4fYL+aOmnliZ2LoDD3RNi+EoR16TOyYvEmMva2xgWb04p0YOqYxYRsjuiAxjZ3dMVzHzqGCZxs70U121A9Om9el6ZhTX7um+/zY++nsjf39Td32OTO5bzbzbdY7xHMx9b1waJ7vz/fU2Jm6r5o+F64fp7mj5vixUzffvp5XvI6/WOL2id01tMzu9P3lutbZnde3TtcYptvRdVt96+zOm3I/9yX3u6Ez/kPaJhB2dcWJSVjoxhkaY+i2TcYfut/OYue+NL7Qat9zbPv6GtoHbMbsW39o37CdPvU9YKz8eefDz+I5s31OdPOnvv+YTJv6vtO1jsl961vH9vl28VxPeb677u/QPma7r5ruj0P7uMv9Yu6oOW7s7BzRmRI6cCvZPaJz5/6UzFSuQ8IH57f7sVPN9vpw9eEQuh8//I73nPn8HPm67XM+3z45vdh5D51zQmdRlhg6uqMpp+ZD7Dwe94Oz7/8I0e2HD78jPGchPEe+bv8cz7ePTit2CJ1FitfLCx3MHzsYjw+/08Lzbf44zR01o2On/vomv1/l8vO/FDz1z8+Z/HpZEDoL9c8V+xcAHNJg7Px+lcuvq/aDEn6b+0Md3eZ+XQBA6AZj5+d/qdk3EgAAYCyj2AEAAPDVYOyc35ZSfX0DAADwErEDAACCRuwAAICgETsAACBoxA4AAAgasQMAAIJG7AAAgKAROwAAIGjEDgAACBqxAwAAgkbsAACAoBE7AAAgaMQOAAAIGrEDAACCRuwAAICgETsAACBoxA4AAAgasQMAAIJG7AAAgKAROwAAIGiTYid/bkQ91nJ+WwIAACzSpNjZhk7xXEvzhwAAACzOpNg5vy0l+1JJsWmkeAUAAFieSbHz21UuJaFj94CfnX340+WYU9fZneZy+1zevyVtFwDAD9Ni5zLvH/zs7Add83Xr6cYZfWcHtmdo3aG/m44xd+h0rTf074O/EDW3N/d2AQD8d/DY6ZtmEjtDY1jdWYdj+W7ofi8ldubeLgCA/5zETv7S7ezsrHf6/p9D86bqGmv/tnftTzdZznZs3XbuLje0XUO3M7Sttvelb3u71hu6L7b3z+axdvXaAQD4i9jpuR2TD9m+eaZjm0y3fUx1yw89rn3PiYvHdOjxHVrW9H6ajgsACN/iY2f7dxf/t74/ztCHrW3sDN0nm8dm7DzXsTMmvkzWtTlyZPNasXnMAACnYXLs9A5uefRgytGE3TFsQkJ3KsX09EnX/dBNM7kPXY9F3xhdp4T61jONSdOwNHk8TO+L7f3ru88u4hgAEIagYmfwzjo45XKM2Okbd+jftsvZzrd5TE3vy9j7Z/JYEzsAgKPHjm3QjA0F2+0ZEzG6ccceyZjyGBwqdkyfpymP85jtnvLYAwBOi5vYee7WeVpob37furpxdOsMMdkek20d2h7dNJP70LWMbt2u6UOPcddyY8YxuW8292V33tTtcvV6AQCE4aCxExI+NJeJ5wUAMITYGXqAODqwWDwvAAATxA4AAAja5NhRX+rZ7wQAAIDO5NgBAABYskmxc35bSlm/AQAALBaxAwAAgkbsAACAoBE7AAAgaMQOECCVKokuIjn/fA7AkegiEpWq2fdv2CN2gABFq1hUmkl2n0u2BjDZfS4qzSRaRbPv37BH7AABilaRZOtciqdKytcGwETFUyXZOid2PEXsAAFqY6eQctNIVb8BmKjcNJKtC2LHU8QOEKBoFUv2UEhVN9r9F4CFupHsoZBoFc++f8Pe4mPn7Oxs1vUBH0WXy4yds7Ozzr+7HvsY6+HEbGPnktjx0VFiZ3vl8C4m605ZhtjBKYp3Ykf3YX7sD/n92zO9/a7lxo61hMcBnnqPnZjY8dLRj+zYxgdHdgB78dXyYmfs7bsMmyU+DvDENnauiB0fLSJ2+qbtzus6IqT7d9+yXdN14/et17cOMKf4Kpb88ftprKFg2H0d7y/TNW9/etey+2Ppxtf9u2u67ihP37b3ba9u2b7twYmqG8kfiR1feRU7unX6ljWd1xUxY7cNmFt8nUj+pTSOna55usAZWn/oNnQhYrI9prc5FFZd4xI76FU3kn8pJb5OZt+/YY/YcTwPWAJXsWMzb+z4JmOZhodNuPRFF6GDHxA7XvMqdkxOQ5mM42re7jbN/UQCu/Zjp/o6HDFdp6S6ltPN21/GZHzbozW6+UPbTuxgMmLHa97Eju40U98yh543NA2YS2IROzanqsbEztD4NkeJxm47sYPJ3mMnIXa8tMjY2T1aMiV2usbpGoPYQWiSm0SKp+rosdO3Tt8YY+PJdewMbQtOWN1eMiK5IXZ8tIjY2U4fipyh01h945iuPzRm320BS5HcJFI8Vz/8UsEpp4L2p+nW2Z9mOv7YgLLZdt22mWwHTlzdSPFM7Phq8b9B2ehOEBvAB8mtkvLlx9jBMGIHnepGypeq3bcWsI/Djtexw1EVoJu6VVK+1sSOJUIHWnUj5Wvd7lsL2Mdhx+vYAdCN2AEcI3a8RuwAAVKpar+NtWna4AEwzab9NpZKiR0fETtAgPJ1LuouE5UqAK7cZZKt89n3b9gjdgAAQNCIHQAAEDRiBwiQSpVEF5Gcfz4H4Eh0EYlK+ZkdHxE7QICiVSwqzSS7zyVbA5jsPheVZhKtotn3b9gjdoAARatIsnUuxVMl5WsDYKLiqZJsnRM7niJ2gAC1sVNIuWmkqt8ATFRuGsnWBbHjKWIHCFC0iiV7KKSqm/l/GRsQgrqR7KGQaBXPvn/D3uJjZ+rlIMauz2Uo4LPoktgBnNrGziWx46OjxM7+1YZtrhZO7AD2YmIHcOs9dmJix0tHP7JjGxHEDmAvviJ2AKe2sXNF7PhoMbGjO+Kz//e+ZWznmY5psv3AksRXseSPxA7gTN1I/kjs+GoRsdM3TRcd+/N0UTI0z/Z2iR34IL5OJP9SEjuAK3V7IdD4Opl9/4a9YGLnkPP6lgeWiNgBHCN2vLaY2NH98HLXaSjdMl23Y3JEaGhMYge+IXYAx4gdry0mdoaWN1nGdD3bMYkd+CYhdgC33mMnIXa8tNjYWdJpLN2ywFIlN4kUTxWxA7hSt5eMSG6IHR8tIna206d8G8tkfdsxTbYbWKLkJpHimdgBnKkbKZ6JHV8t/jcoG92JI4QIsQOfJLdKyhdiB3CmbqR8qdp9awH7OOwQOwsYH3BN3SopX2tiB3ClbqR8rdt9awH7OOwEETsAPiJ2AMeIHa8RO0CAVKrab2NtmjZ4AEyzab+NpVJix0fEDhCgfJ2LustEpQqAK3eZZOt89v0b9ogdAAAQNGIHAAAEjdgBAqRSJdFFJOefzwE4El1EolJ+ZsdHxA4QoGgVi0ozye5zydYAJrvPRaWZRKto9v0b9ogdIEDRKpJsnUvxVEn52gCYqHiqJFvnxI6niB0gQG3sFFJuGqnqNwATlZtGsnVB7HiK2AECFK1iyR4Kqepm/l/GBoSgbiR7KCRaxbPv37AXZOxweQecuuiS2AGc2sbOJbHjo6PETt9Vya032GDdvmUIIZyCmNgB3HqPnZjY8dLRYsdkmrM7RezgxMVXxA7g1DZ2rogdH80eO/t/bv/edRRI9++u6brbcnF0CVi6+CqW/JHYAZypG8kfiR1fLSJ2+kJlf1pXHPXN04UPELL4OpH8S0nsAK7U7YVA4+tk9v0b9hYRO6bL9q3XNe/Yp8+ApSB2AMeIHa/N/gPKU2JHN27faSpiB6eA2AEcI3a8NtuRHd28KUd2TJYhdnAKEmIHcOs9dhJix0tBxQ4/swO0kptEiqeK2AFcqdtLRiQ3xI6PFhc722m6b01N+TbW/npzP/jAoSQ3iRTPxA7gTN1I8Uzs+Mq736BMpADDklsl5QuxAzhTN1K+VO2+tYB9HHa8iR2OxgDm1K2S8rUmdgBX6kbK17rdtxawj8OON7EDwByxAzhG7HiN2AECpFLVfhtr07TBA2CaTfttLJUSOz4idoAA5etc1F0mKlUAXLnLJFvns+/fsEfsAACAoBE7AAAgaMQOECCVKokuIjn/fA7AkegiEpXyMzs+InaAAEWrWFSaSXafS7YGMNl9LirNJFpFs+/fsEfsAAGKVpFk61yKp0rK1wbARMVTJdk6J3Y8RewAAWpjp5By00hVvwGYqNw0kq0LYsdTxA4QoGgVS/ZQSFU38/8yNiAEdSPZQyHRKp59/4Y9YmfBTC+PwWU0sC+6JHYAp7axc0ns+OjosTN0lfP9f+uufN43Tte4vgVB31Xchx5PINbEztnZ2Q/78f5+0jW9a7muZbvGHrqdKfO6ttN0Pd3jAXR6j52Y2PHSUWNnN2Z080znD8XO0Bg+8XW7MZ/46mPs9AXB/n69Hygmyw7FziHm6eabrtcXQcAPtrFzRez4yJvY6Vq/a52+2xjaNtMjQ33TdWP1rde1ju4ol8lYQHwVS/44fGTHZez0jX+sEDK9X33TgE51I/kjseMrYqfndmy3XRcxU8bsmh/SUSscRnydSP6lDD529pner75pQKe6vRBofJ3Mvn/D3tFiZ+gD23XsbP8+5uiH7bZNDRpiB67NFTu6vx/ryI7JvKFpQCdix2tex8727ybrmszrCiOb0JgaNLrbJXZgyzR2ttNMjpDYHEkZOuIz57yhaUAnYsdrR42dviMtc8aOzbYcKnaG7qPpekBZv0liETv7bI7s6OYROwjOe+wkxI6XjhI7JpExFCy2QWMTBLqYmBIoLscidmAruUmkeKqsY0cXLUPr9h0x6ps/xzybxwP4pm4vGZHcEDs+WkTs7B/tsTkK1HdbfWN0rTe0HUPjmkTa0Hi6sUy3ASjr99h5rjq/er4bIfvzdvfv/elTYqdrG3S3Ncc8ogeD6kaKZ2LHV/wGZSBAya2S8uXHIzsARqobKV+qdt9awD4OO8QOECB1q6R8rYkdwJW6kfK1bvetBezjsEPsAAEidgDHiB2vETtAgFSq2m9jbZo2eABMs2m/jaVSYsdHxA4QoHydi7rLRKUKgCt3mWTrfPb9G/aIHQAAEDRiBwAABI3YAQKkUiXRRSTnn88BOBJdRKJSfmbHR8QOEKBoFYtKM8nuc8nWACa7z0WlmUSraPb9G/aIHSBA0SqSbJ1L8VRJ+doAmKh4qiRb58SOp4gdIEBt7BRSbhqp6jcAE5WbRrJ1Qex4itgBAhStYskeCqnqZv5fxgaEoG4keygkWsWz79+wt7jY6boYpslFPOd+IIEliS6JHcCpbexcEjs+WsRVz4f+7SJ2CCKcklgTO31XJ3d5VXEgOO+xExM7XlpU7OjmEzuAnfjqY+z0Bcv+fr2dNnYeEKRt7FwROz462mksk6M4W/vL7E/TLdc3v2s6EKr4Kpb8cfjIDrEDGKobyR+JHV8tJna65g0d2TGdP3R7QGji60TyLyWxA7hStxcCja+T2fdv2CN2gAARO4BjxI7XjvptrL446TrVNHQay3S+7jaBUBE7gGPEjtcWETtD38IaWs9kXGIHpyQhdgC33mMnIXa8ROwAAUpuEimeKmIHcKVuLxmR3BA7Pjr6LxXs+/maQ57G2p0394MOHFpyk0jxXHV+9Xxrux/rpk+ZBwSnbqR4JnZ8tbjfoAxguuRWSfny45EdACPVjZQvVbtvLWAfhx1iBwiQulVSvtbEDuBK3Uj5Wrf71gL2cdghdoAAETuAY8SO14gdIEAqVe23sTZNGzwAptm038ZSKbHjI2IHCFC+zkXdZaJSBcCVu0yydT77/g17xA4AAAgasQMAAIJG7AABUqmS6CKS88/nAByJLiJRKT+z4yNiBwhQtIpFpZlk97lkawCT3eei0kyiVTT7/g17xA4QoGgVSbbOpXiqpHxtAExUPFWSrXNix1PEDhCgNnYKKTeNVPUbgInKTSPZuiB2PEXsAAGKVrFkD4VUdTP/L2MDQlA3kj0UEq3i2fdv2PMydrigJ9AvuiR2AKe2sXNJ7PjoKLHTdcXl0Ru8d4Xzrr8f7cEjuLBQMbEDuPUeOzGx46WjxY7JtLFjTRlv0oNH7GCh4itiB3BqGztXxI6PZo+d/T+3f+86CqQ7QmR61Mh03K5ttFlnaKy5n3SEL76KJX8kdgBn6kbyR2LHV4uInaHTUSanroYiwuaIkG7bhm7TdizgUOLrRPIvJbEDuFK3FwKNr5PZ92/YW0TsmC5r+nfTbbDdtqHbtB0LOBRiB3CM2PHa7D+gvITY6Ts9ZrotY8YCDoXYARwjdrw225Ed3bwlHNkZsy1jxgIOJSF2ALfeYychdrxE7HAaCwFKbhIpnipiB3Clbi8ZkdwQOz5aXOxsp+m+XWVyGqnvtsZ8g6pve6eMBRxKcpNI8UzsAM7UjRTPxI6vvPwNygD6JbdKyhdiB3CmbqR8qdp9awH7OOwQO0CA1K2S8rUmdgBX6kbK17rdtxawj8MOsQMEiNgBHCN2vEbsAAFSqWq/jbVp2uABMM2m/TaWSokdHxE7QIDydS7qLhOVKgCu3GWSrfPZ92/YI3YAAEDQiB0AABA0YgcIkEqVRBeRnH8+B+BIdBGJSvmZHR8RO0CAolUsKs0ku88lWwOY7D4XlWYSraLZ92/YI3aAAEWrSLJ1LsVTJeVrA2Ci4qmSbJ0TO54idoAAtbFTSLlppKrfAExUbhrJ1gWx4yliBwhQtIoleyikqpv5fxkbEIK6keyhkGgVz75/w96iY2fKxTNt1h17O1zcE0sVXRI7gFPb2Lkkdnw021XPdVcEN/n7mNtzufzU9YBDi4kdwK332ImJHS/NEjumkTA2dqwfBGIHgYmviB3AqW3sXBE7Pjp67OiO8uzaX7Zvft+0rsjqmt91O7bbp7u/wBziq1jyR2IHcKZuJH8kdnx11NgZOp3Vt7xJUJiO1TVPN77JmMQOlia+TiT/UhI7gCt1eyHQ+DqZff+GvaPFji4AlhI7U+f1LQ8cG7EDOEbseM3bIzvbaX2nsLpOVdlul+mYxA6WhNgBHCN2vDb7z+xMiZ2+5fu2wWQ92zGJHSxJQuwAbr3HTkLseGn2b2MdOnb6fq7G9SkuQgdLkdwkUjxVxA7gSt1eMiK5IXZ8tJjfs9P3baf95fbX6VpmaN7u+C63b+4nFCjr99h5JnYAZ+pGimdix1eL/g3KB7/zjuOE2MFSJLdKyhdiB3CmbqR8qdp9awH7OOycVOz0HfVxMfbc9w/YUrdKytea2AFcqRspX+t231rAPg47JxU7wKkgdgDHiB2vETtAgFSq2m9jbZo2eABMs2m/jaVSYsdHxA4QoHydi7rLRKUKgCt3mWTrfPb9G/aIHQAAEDRiBwAABI3YAQKkUiXRRSTnn88BOBJdRKJSfmbHR8QOEKBoFYtKM8nuc8nWACa7z0WlmUSraPb9G/aIHSBA0SqSbJ1L8VRJ+doAmKh4qiRb58SOp4gdIEBt7BRSbhqp6jcAE5WbRrJ1Qex4itgBAhStYskeCqnqZv5fxgaEoG4keygkWsWz79+wt5jYcXVRTZP1bMbuu1gosFTRJbEDOLWNnUtix0dHu+r50NXI9/9+qNghdHAK4p3Y2e5z+/tv1zQAGu+xExM7Xjpa7JhMs5nvej0gJPEVsQM4tY2dK2LHR7PFzu703T9107qOBnXNGzpq1LeOybKAD+KrWPLH77FTff0xbnb/vf9675vetRwQvLqR/JHY8dWiYmd/mi5c+o4U6cJnaB3TZQEfxNeJ5F9Ko9jpO+rTF0i6dYEg1e2FQOPrZPb9G/YWHTsmy+vmmfzA85hlAR90xU719cejOfvThuYROzhZxI7XvI0d3Q896047Da0ztL3EDnyii53q648ho9s3dpfZX1f3byBYxI7XvI2dodsyCRjdPGIHvkssY0e3jxM7wLv32EmIHS8t4ttYhziN1ff3ofGIHfguuUmkeKo6Y6f6+v1ozvbvXfO75hE7OFl1e8mI5IbY8dGif8/O0Dpd84bGNlmnb1nAB8lNIsWzWezs/rtr+v56ff8GglU3UjwTO75azG9Q/rZBhAUwWXKrpHyp+A3KgCt1I+VL1e5bC9jHYWcxscMRFMAddaukfK2JHcCVupHytW73rQXs47CzmNgB4A6xAzhG7HiN2AECpFLVfhtr07TBA2CaTfttLJUSOz4idoAA5etc1F0mKlUAXLnLJFvns+/fsEfsAACAoBE7AAAgaMQOECCVKokuIjn/fA7AkegiEpXyMzs+InaAAEWrWFSaSXafS7YGMNl9LirNJFpFs+/fsEfsAAGKVpFk61yKp0rK1wbARMVTJdk6J3Y8RewAAWpjp5By00hVvy3O2dnZ7NsA2Cg3jWTrgtjxFLEDBChaxZI9FFLVzfy/jG0P19OCl+pGsodColU8+/4Ne4uPnTGXkBh72QkuV4FQRJfLjR3AS9vYuSR2fHS02BlzFfFDRkvf1dEB38U7sbN/JfOtriuYd1353HRe1/gmt6ubBizKe+zExI6XjhI7XSFxyLgYEztASOIru9ixnb8/zzR2tv/uGw9YpG3sXBE7PpotdnbndR3xGZq2na5bbsw4+3/2jWt6W8Ac4qtY8sfvsVN91QdGX2iYxEnXMra3Sexg8epG8kdix1ezx47Jcvsholtet1zX8n3r2ow7dJvAHOLrRPIvJbEDuFK3FwKNr5PZ92/YW8zP7Awd/ela5lCxY3r7JrcJzKErdqqvZkGya3eZvp/ZMRnbJJiAxSJ2vDbbt7FMTg/pTjXp1utaru802dC6NvN2b2vuJxXQxU719ccQsT2yMxQtQ3FlMg9YHGLHa4uMHdMQGVqub/lDxE7fNOCYkgPGzv6/bWJHd4SI2MHivYhX1OEAABgVSURBVMdOQux4afZvY5nEwlJjZ8wpOeAYkptEiqeqM3aqr/1R0jVt7FGZoaAyCS5gEer2khHJDbHjo9l/ZsdmusvTWLvz9tc1WadvvbmfVCC5SaR4No+d3Wm6eV1j6OaZLrM7v+/2gdnVjRTPxI6vFv8blI/+gBArCEByq6R8qfgNyoArdSPlS9XuWwvYx2GH2Nl/QIgdBEDdKilfa2IHcKVupHyt231rAfs47BA7QICIHcAxYsdrxA4QIJWq9ttYm6YNHgDTbNpvY6mU2PERsQMEKF/nou4yUakC4MpdJtk6n33/hj1iBwAABI3YAQAAQSN2gACpVEl0Ecn553MAjkQXkaiUn9nxEbEDBChaxaLSTLL7XLI1gMnuc1FpJtEqmn3/hj1iBwhQtIokW+dSPFVSvjYAJiqeKsnWObHjKWIHCFAbO4WUm0aq+g3AROWmkWxdEDueInaAAEWrWLKHQqq6mf+XsQEhqBvJHgqJVvHs+zfsLT52uq5U3nf1cpNxDrV9h1xnrvsHP0WXxA7g1DZ2LokdH81+1fOhdbr+bRs9Q1dLH/3gjRzHdZgQOtgX78RO1xXF+642vnvF8aErkfddJd1kPNPbG1oPOLj32ImJHS8dJXa6PoynHBFxNd5sD7pH2wo/xVf9R3Z2Y0e3f+vipm++yXo222KyncBRbGPnitjx0Wyxszuv64iPbpruz6ExbI4C7S5vu31963fdvu5o1zG2A+GKr2LJH7tjxyRYdFxEksl0m9sDjqJuJH8kdnw1e+yYLNcXObp1+47+DN3O1O0b2ibbcQ61HQhXfJ1I/qU0ih2bU0O78dF3yqnvNk2m29wecBR1eyHQ+DqZff+GvcX8zM7Q0Za+P7vWdx07Nts3tE1TYsfldiBcutgxiQSTMBkKGpMw6ZtuE17AURA7Xpvt21h9obKd1nUqpuvPrjHGxM7u7ZqMpdu+oW0aOuV0rO1AuFzGTld49MWO6ZGdKeFluj7gDLHjtUXGzlAkHDJ2XGyf7f0w2eZDbAfClXTEjmkcDB3B0U23iZ0x22IzD3DuPXYSYsdLs38by+SU1pyxM2b7bO/HoR4nm8cGYUluEimeqsHYsY2WsevZHBkaOyZwUHV7yYjkhtjx0ew/s2Mz3SQWTMce2sYp26e7HV2kdY1zjO1AuJKbRIrn77EzFC67dNOH5puMOXZbhuYBB1c3UjwTO75a/G9QBmAvuVVSvlT8BmXAlbqR8qVq960F7OOwQ+wAAVK3SsrXmtgBXKkbKV/rdt9awD4OO8QOECBiB3CM2PEasQMESKWq/TbWpmmDB8A0m/bbWColdnxE7AAByte5qLtMVKoAuHKXSbbOZ9+/YY/YAQAAQSN2AABA0IgdIEAqVRJdRHL++RyAI9FFJCrlZ3Z8ROwAAYpWsag0k+w+l2wNYLL7XFSaSbSKZt+/YY/YAQIUrSLJ1rkUT5WUrw2AiYqnSrJ1Tux4itgBAtTGTiHlppGqfgMwUblpJFsXxI6niB0gQNEqluyhkKpu5v9lbEAI6kayh0KiVTz7/g17JxE7XPgSpya6JHYAp7axc0ns+OgosdN15eTRG9yxbt94JrdlckV0wCexJnaGrjjeNc31FdFNb8N2HOCg3mMnJna8dLTYMZl27LGAUMVXH2OnLxj6QqNrWd08k/VslrUZBzi4bexcETs+mj12dH/qlt0/OqQ7YmRzJKlv2aGxx26Dy6NdwL74Kpb8cfqRHd0yx4idsdsIHETdSP5I7PhqEbEzdBrJZr7pMqbbZjqOzbocncKhxdeJ5F/Kg8ZO3yks07GJHXijbi8EGl8ns+/fsDf7z+zYhsqSY8d0O4kdHNohYsd0/piA6TvNZnr7wEERO15bxJEd02VN5psuY3N7ulNQQ9ugizxiB4fmMnaGIqRr/b4jP0O3uT/N9PaBgyJ2vEbsGC5ru12mR4BMlgdsJY5ixyYyxoZU3zQiB4vxHjsJseOlxcfO0GkvkzF002yWdXFaqu8+EztwKblJpHiqJsWOqzDqG7dvHEIHi1K3l4xIbogdHy3uZ3b2l+9axuTUku72TLZPtx0m00y3weTUFjBWcpNI8Vx1fvV8/7SQbp7uVKxuvd33hr7TV33LDm0XAYTZ1I0Uz8SOr07iNyj7gNiBS8mtkvLlxyM7S0CwwEt1I+VL1e5bC9jHYYfYmeuBtzjyBNhSt0rK13pxsUPowFt1I+Vr3e5bC9jHYYfYAQK01NgBvEXseI3YAQKkUtV+G2vTtMEDYJpN+20slRI7PiJ2gADl61zUXSYqVQBcucskW+ez79+wR+wAAanPzjrNvV2Az9iv/EfsAAHhDRg4DvY1vxA7QEC2b8AqVRJdRHL++RyAI9FFJCpVcv7vc6nPzuT83+ejqDSb/b3i1BA7QEC2sROtYlFpJtl9LtkawGT3uag0k2gVydubSH12Js0fYi17qOT83+ezv1ecGmIHCMj32IkkW+dSPFVSvjYAJiqeKsnWeRs7/2ljx/a/t7f32PlM7BwbsQME5GPsFFJuGqnqt4P4y5//JH/5858ONj6wJOWmkWxdfIiduhErb28i2WMl55+j2d8rTg2xAwQoWsWSPRRS1c3BfsnaX/7fn+Qv/+9P8/+yN+AY6kayh0KiVdzGTvP23dc3+fvf/tqr/vomb/95j50LYufYFhU7S79swpjtW/p9QpiiS2IHcGobO5dx+zM7X9++KV8b+fvf/irZl6rT3//2VylfG2nej+xExM7RzX7V891l5n4wTO7HMdYBpop3Yqfv6uG6a1Xprny+uwyxg5PyHjvxZSzNH/ItcIZsY6d4rqVp3mNnRewc29Fix2Ta0hE78EV89TF2dPuwSezolid2cFK2sXMVS/31TfKnWv7+t7/2/kDybuzkT7VU9dt77MSzv0ecmkXEju6oz/bvunn70/uWH7qdrrF029O1fbr7Z3o/ufo5XIqvYskfiR3AmbqR/LGNnerrm2SPdrGTPdZSbt4ke6gkviR2jm322BmapwsM2+VttsFkjL4I6lpHFzIEDg4hvk4k/1ISO4ArdXsh0Pg6kap+E/VQWcWOeqikeG2P7BA7x7f42BkayzY6TOYNxY5tgOmW6ZsOTLEfO/zMDjARseO12X9AWfdGvJ3XNVbX34eWt7mdvtgxCbD9dXTL7D8Gc78YEI5DHNkhdnDSdmKnfH2TZG0WO1vJupL8uWlPY10RO8c225GdsfOmxI7p7RzzyI7pYwHYSDiNBbj1HjuJZexE17nEaSHqoY0d9VC1wbSA94lTssjYcXWKa+xYU39mp+uoEbGDY0puEimeqsHYqb72Bw2xA7yr20tGJDd2sRPflaIeKlGPdRs766oNpgW8T5yS2WNnO193iks31tjTXia3YxI7fWPr1tFtM6ex4Fpyk0jxXA3+zM5W3/T9/X47jdjBSakbKZ5/jJ0hybqS7Esj2ZfmPXbKdowFvE+ckkX9BmUAbiS3SsqXit+gDLhSN1K+VO2+9fp+OiotJLrOtbanr77FzlMj6r6U5EbN/h5xaogdICDbC4GqWyXla03sAK7UjZSvtahbJcVLI/XZmST3lST3ZY+qPYX1UIt6qCX7UktyV7TBtID3i1NC7AABOWbsACdlJ3byx7KNnbvCmror2v1zAe8Xp4TYAQLyLXZS1X4ba9O0wQNgmk37bSyVKlGpkvrsTNStspcqKb5Us79XnBpiBwjINnbydS7qLvv2xgzAgbtMsnX+YV+DH4gdICC8AQPHwb7mF2IHCEh9dtZp7u0CfMZ+5T9iBwiQSpVEF5Gcfz4H4Eh0EYlK+eFiHxE7QICiVSwqzSS7zyVbA5jsPheVZhKtotn3b9gjdoAARatIsnUuxVMl5WsDYKLiqZJsnRM7niJ2gAC1sVNIuWmkqt8ATFRuGsnWBbHjKWIHCFC0iiV7KKSqm/l/GRsQgrqR7KGQaBXPvn/D3uJjZ8wFMm3XOcZtAMcUXRI7gFPb2Lkkdnx0tNjRXXF8aJ1Rd+rIsUP4YGnivdgxveJ511XOt8t0TRtaz2Qck3lDy5pc2R2Y5D12YmLHS0eJna4YOGQgEDs4dfHV99jRhcrun13ztn/XBVLfel3zdAFiEyc22wM4tY2dK2LHR7PFzu68riM+Q9O203XL9Y0ztH1Dt7m7jMn2E0M4tvgqlvxRfxrLNHZ002xjx2SZqUd2Zv8wRNjqRvJHYsdXs8eOyXK7YdG3vG450/H7/t53G0PbZfMYAC7E14nkX8qTih1OYeGg6vZCoPF1Mvv+DXuL+ZkdkyMvh44dm2ghdrBkfbGzf5qqb75u2tJiZ+p4wCBix2uzfRvL5AhK1ykr3Ri7/7Y9ndQXYF2Gtr9vPeAYumKn64jH2NjZHc/maAqxA28RO15bZOyYHrEZWs7kiMuY5W23Hzi2ZC92dB/8U2LH9TLEDhbtPXYSYsdLs38by+SUz7Fip+/vfdvCaSwsTXKTSPFUab+NteUqdkyOGA2NY3O7rk6rAcbq9pIRyQ2x46PZf2bHZvohT2Pp/t23fV33z+Z2gUNJbhIpnr/HTt8pp75TUabr7b83jB2na97YcWb/cERY6kaKZ2LHV4v/DcoA7CW3SsqXit+gDLhSN1K+VO2+tYB9HHaIHSBA6lZJ+VoTO4ArdSPla93uWwvYx2GH2AECROwAjhE7XiN2gACpVLXfxto0bfAAmGbTfhtLpcSOj4gdIED5Ohd1l4lKFQBX7jLJ1vns+zfsETsAACBoxA4AAAgasQMESKVKootIzj+fA3AkuohEpfzMjo+IHSBA0SoWlWaS3eeSrQFMdp+LSjOJVtHs+zfsETtAgKJVJNk6l+KpkvK1ATBR8VRJts6JHU8RO0CA2tgppNw0UtVvACYqN41k64LY8RSxAwQoWsWSPRRS1c38v4wNCEHdSPZQSLSKZ9+/YY/YqY9zlXKuhI5jii6JHcCpbexcEjs+OkrsDH3Q911N/CgPwsDV1G3u15TbIH7gSrwXOzZXNu/a13VXNre9ynjfciZjTL0fwGjvsRMTO16aJXaW9qF+jO0xuY2lPS7wV3z1PXZ0obL7Z9e87d91YdG3Xtc8XYSYBsqU+wFMto2dK2LHR0ePHd0RjV37y/bN61q277aHxtIt07UdfXGyP47uNvput+/oj275ru3G6YmvYskf9aexbCNhauyYLEPsYNHqRvJHYsdXR40d01M3+x/eJmPZTu+aZ7LM0LZPWdbkCJhJ1PXdHk5DfJ1I/qUkdub+gEQ46vZCoPF1Mvv+DXtHi50xYTAUDTaBQ+zglPTFzm4EEDuAIWLHa4s/stO3vG3s6E4t6U4N6U419W276Xbrxh/72BA72NUVO9vX2+4+PDZ2dsfbNfSBcajYGbs9gDFix2uz/8zOnEd2TG5vzPJjI4XYgSvJXuzoPvinxI7rZabGzpjtAYy9x05C7Hhp9m9jTT11ZBocU09jmW6f7rZdxI7pOH3bhtOQ3CRSPFXab2NtuYodkyNGQ+OYHLkxHY/QgXN1e8mI5IbY8dFifs+OyWmdrmm2R1eGbmfoFJbN0SJdnOhuY3fe0DjEDvokN4kUz99jp+8UT9+pH9P19t8bxo7TNa9vHN282T8YEZ66keKZ2PGV979BmQ914EfJrZLypeI3KAOu1I2UL1W7by1gH4cdr2OH0AG6qVsl5WtN7ACu1I2Ur3W7by1gH4cdr2MHQDdiB3CM2PEasQMESKWq/TbWpmmDB8A0m/bbWColdnxE7AAByte5qLtMVKoAuHKXSbbOZ9+/YY/YAQAAQSN2AABA0IgdIEAqVRJdRHL++RyAI9FFJCrlZ3Z8ROwAAYpWsag0k+w+l2wNYLL7XFSaSbSKZt+/YY/YAQIUrSLJ1rkUT5WUrw2AiYqnSrJ1Tux4itgBAtTGTiHlppGqfgMwUblpJFsXxI6niB0gQNEqluyhkKpu5v9lbEAI6kayh0KiVTz7/g17i48dV5eEMBnnkLfFpS1wTNElsQM4tY2dS2LHR0e76rmOybpdf7e6kwZjuIwRkyuQEz84pHgvdmyubN61r+uubG57pfG+5UzGmHo/gNHeYycmdrx09CM7th/yrqPgGJFxzKNIQJf46nvs6EJl98+uedu/68Kib72ueboIMQ2UKfcDmGwbO1fEjo8WEzu6Iz7bv3dN1x0h2p++P8aUsUy2XTd23+31Hf3RLT92exG++CqW/FF/Gss2EqbGjskyxA4WrW4kfyR2fLWI2Bn6oO+bZjOva77tWGPvj8vtMFnXdPsRpvg6kfxLSezM/QGJcNTthUDj62T2/Rv2iB1iBwHqi53dCCB2AEPEjtcWEzu6U0G62DE5ddR1m32nfUzGMr0/uvH7tkM3jk3s6G4Pp6Urdravid19eGzs7I63a+gD41CxM3Z7AGPEjtcWEzsmy9sccdEtb3pUxHQbx0bKIWJn7H1DeJK92NF98E+JHdfLTI2dMdsDGHuPnYTY8dJiY2foyM7UMcZuz9B03VEp2+0wHafvcSF2Tldyk0jxVGm/jbXlKnZMjhgNjWNy5MZ0PEIHztXtJSOSG2LHR4uIne30odM9pqeHTE4ZjR1raNtNt3NoO3bHMY2dodvD6UhuEimev8dO3ymevlM/puvtvzeMHadrXt84unmzfzAiPHUjxTOx46vF/wblDxvLhzdgJLlVUr5U/AZlwJW6kfKlavetBezjsONF7HCUArCjbpWUrzWxA7hSN1K+1u2+tYB9HHa8iB0AdogdwDFix2vEDhAglar221ibpg0eANNs2m9jqZTY8RGxAwQoX+ei7jJRqQLgyl0m2Tqfff+GPWIHAAAEjdgBAABBI3YAAEDQiB0AABA0YgcAAASN2AEAAEEjdgAAQNCIHQAAEDRiBwAABI3YAQAAQSN2AABA0IgdAAAQNGIHAAAEjdgBAABBI3YAAEDQiB0AABA0YgcAAASN2AEAAEEjdgAAQNCIHQAAEDRiBwAABI3YAQAAQSN2AABA0IgdAIDW29dYos+/ys//+2mS6POv8vY1PvkxMQ9iBwCgdf7vXyW5/k3kP5XIf+qRKkmuf5Pzf/968mNiHsQOAEDr0y+f5G0Ttx/c8jbOf2p528Ty6ZdPJz8m5kHsAAC0Pnzgv+Xf/Nf//bf81//994dpWn0RceAx5S2Xn/7xk9bYMeUtFxGxHhPzIHYAAFrfPvCl+RAlv93/VX67/2sbJx0f+h+joOmOiAOPuRs7Xf/9MK7hdu6yHRPzIHYAAFr7Rzd2o2Q/TrQf+ANHTA4xpk3sfBvXYMyuKLMZE/MgdgAAWt8/8KvOKOn64P/wgf9HJvKfShMRhxlT/sg+MImdn/7x0+B2bu1u3/4RnqExMQ9iBwCg9e0Df+8UjtUH/lveHREHGlP+UB+Yxs5P//ipdztto6xrTMyD2AEAaH365ZM0m7g9StLEIk1sdCrn5//5+cMHfrMXEccYc0sXO1230Temyem2oTExD2IHAKClC5O+H9K1jQiT2Bkz5jeG/x1jOzEPYgcAoKWLCNPQsYmIQwSU6zGn3nfMg9gBAGid8lGYQwQU5kHsAAC0DvFzK8f4+ZpDxg6nsfxD7AAAtNoP/Ejkj8z4G0ndH/jRXkRE7xERfWAXO91jmn7Da44xMQ9iBwCg9emXT9K8RiJ/JNM+8F/3IuJ9zEmxoxlzUpQdeEzMg9gBAGh9+uWTNC8fw2TUqZyXvYh4cRA7PWNut/HX9M/ya/pn89NtBmNan8J7IXbmRuwAALQ+/fJJ6o7Ysf0h3XovIvbHHBM7Q2OaXG9r36HHxDyIHQCA1qdfPkn9fN4ZJtJEIiLy8//83Ounf/wk9fP5x4jQjLkNBFdjfguyrm3f90dy8DExD2IHAKD16ZdPUj39LtJoYsdIItXT7x8i4lTHxDyIHQCA1qdfPkn5+Lu8fY1FvkajvH2NpXz8GBGnOibmQewAALSiz79K9PmfUj78JuXjSA+/SfT5nxJ9/vXkx8Q8iB0AgJZ8jSVe/So//++nSeLVryJf45MfE/MgdgAAQNCIHQAAEDRiBwAABI3YAQAAQSN2AABA0IgdAAAQNGIHAAAEjdgBAABBI3YAAEDQiB0AABA0YgcAAASN2AEAAEEjdgAAQNCIHQAAELTJsQMAALBkk2IHAABg6YgdAAAQNGIHAAAEjdgBAABBI3YAAEDQiB0AABA0YgcAAASN2AEAAEEjdgAAQNCIHQAAEDRiBwAABI3YAQAAQSN2AABA0IgdAAAQtP8PXw/gnMTAOJgAAAAASUVORK5CYII=;" vertex="1" parent="WIyWlLk6GJQsqaUBKTNV-1">
          <mxGeometry width="391" height="337.59" as="geometry" />
        </mxCell>
        <mxCell id="xEbQ03a80R56JPfjnqh_-10" value="" style="edgeStyle=orthogonalEdgeStyle;rounded=0;orthogonalLoop=1;jettySize=auto;html=1;" edge="1" parent="WIyWlLk6GJQsqaUBKTNV-1" source="xEbQ03a80R56JPfjnqh_-7" target="xEbQ03a80R56JPfjnqh_-9">
          <mxGeometry relative="1" as="geometry" />
        </mxCell>
        <mxCell id="xEbQ03a80R56JPfjnqh_-7" value="Engedélyezések után a MIRO tranzakcióba kerül a számla, de itt az árfolyam már nem módosítható. " style="whiteSpace=wrap;html=1;rounded=1;shadow=0;strokeWidth=1;glass=0;" vertex="1" parent="WIyWlLk6GJQsqaUBKTNV-1">
          <mxGeometry x="430" y="270" width="160" height="100" as="geometry" />
        </mxCell>
        <mxCell id="xEbQ03a80R56JPfjnqh_-9" value="Hibásan nem a szállító árfolyamán könyvelődik le a számla, hanem az SAP árfolyama szerint" style="whiteSpace=wrap;html=1;rounded=1;shadow=0;strokeWidth=1;glass=0;" vertex="1" parent="WIyWlLk6GJQsqaUBKTNV-1">
          <mxGeometry x="440" y="400" width="140" height="110" as="geometry" />
        </mxCell>
        <mxCell id="xEbQ03a80R56JPfjnqh_-13" value="A megoldási javaslat szerint, ha már az iktatásnál beírnánk az árfolyamot, akkor az átkerülhetne a DMS adatlapba, majd onnan a MIRO-ba is. Így elérhető lenne, hogy a szállító árfolyama legyen a döntő és ne az SAP árfolyama. " style="rounded=1;whiteSpace=wrap;html=1;fillColor=#f8cecc;strokeColor=#b85450;" vertex="1" parent="WIyWlLk6GJQsqaUBKTNV-1">
          <mxGeometry y="410" width="380" height="130" as="geometry" />
        </mxCell>
        <mxCell id="xEbQ03a80R56JPfjnqh_-18" value="" style="endArrow=classic;html=1;exitX=0.45;exitY=0;exitDx=0;exitDy=0;exitPerimeter=0;fillColor=#f8cecc;strokeColor=#b85450;" edge="1" parent="WIyWlLk6GJQsqaUBKTNV-1" source="xEbQ03a80R56JPfjnqh_-13" target="xEbQ03a80R56JPfjnqh_-5">
          <mxGeometry width="50" height="50" relative="1" as="geometry">
            <mxPoint x="170" y="400" as="sourcePoint" />
            <mxPoint x="180" y="390" as="targetPoint" />
          </mxGeometry>
        </mxCell>
      </root>
    </mxGraphModel>
  </diagram>
</mxfile>
